HIERARCHY
ROOT Hips
{
	OFFSET 0.00000 0.00000 0.00000
	CHANNELS 6 Xposition Yposition Zposition Zrotation Yrotation Xrotation 
	JOINT LHipJoint
	{
		OFFSET 0 0 0
		CHANNELS 3 Zrotation Yrotation Xrotation
		JOINT LeftUpLeg
		{
			OFFSET 1.44361 -1.63093 0.70831
			CHANNELS 3 Zrotation Yrotation Xrotation
			JOINT LeftLeg
			{
				OFFSET 2.20103 -6.04728 0.00000
				CHANNELS 3 Zrotation Yrotation Xrotation
				JOINT LeftFoot
				{
					OFFSET 2.54154 -6.98283 0.00000
					CHANNELS 3 Zrotation Yrotation Xrotation
					JOINT LeftToeBase
					{
						OFFSET 0.05971 -0.16406 1.77582
						CHANNELS 3 Zrotation Yrotation Xrotation
						End Site
						{
							OFFSET 0.00000 -0.00000 0.90832
						}
					}
				}
			}
		}
	}
	JOINT RHipJoint
	{
		OFFSET 0 0 0
		CHANNELS 3 Zrotation Yrotation Xrotation
		JOINT RightUpLeg
		{
			OFFSET -1.65838 -1.63093 0.70830
			CHANNELS 3 Zrotation Yrotation Xrotation
			JOINT RightLeg
			{
				OFFSET -2.26926 -6.23475 0.00000
				CHANNELS 3 Zrotation Yrotation Xrotation
				JOINT RightFoot
				{
					OFFSET -2.34808 -6.45129 0.00000
					CHANNELS 3 Zrotation Yrotation Xrotation
					JOINT RightToeBase
					{
						OFFSET -0.18633 -0.51195 1.68539
						CHANNELS 3 Zrotation Yrotation Xrotation
						End Site
						{
							OFFSET -0.00000 -0.00000 0.88927
						}
					}
				}
			}
		}
	}
	JOINT LowerBack
	{
		OFFSET 0 0 0
		CHANNELS 3 Zrotation Yrotation Xrotation
		JOINT Spine
		{
			OFFSET -0.10393 2.01691 0.06920
			CHANNELS 3 Zrotation Yrotation Xrotation
			JOINT Spine1
			{
				OFFSET 0.04092 2.01302 -0.05283
				CHANNELS 3 Zrotation Yrotation Xrotation
				JOINT Neck
				{
					OFFSET 0 0 0
					CHANNELS 3 Zrotation Yrotation Xrotation
					JOINT Neck1
					{
						OFFSET -0.02870 1.58978 -0.03113
						CHANNELS 3 Zrotation Yrotation Xrotation
						JOINT Head
						{
							OFFSET 0.11532 1.54326 -0.29195
							CHANNELS 3 Zrotation Yrotation Xrotation
							End Site
							{
								OFFSET 0.04056 1.59999 -0.09535
							}
						}
					}
				}
				JOINT LeftShoulder
				{
					OFFSET 0 0 0
					CHANNELS 3 Zrotation Yrotation Xrotation
					JOINT LeftArm
					{
						OFFSET 3.30641 1.15764 0.01104
						CHANNELS 3 Zrotation Yrotation Xrotation
						JOINT LeftForeArm
						{
							OFFSET 4.63208 -0.00000 0.00000
							CHANNELS 3 Zrotation Yrotation Xrotation
							JOINT LeftHand
							{
								OFFSET 3.41924 -0.00000 -0.00000
								CHANNELS 3 Zrotation Yrotation Xrotation
								JOINT LeftFingerBase
								{
									OFFSET 0 0 0
									CHANNELS 3 Zrotation Yrotation Xrotation
									JOINT LeftHandIndex1
									{
										OFFSET 0.62537 -0.00000 -0.00000
										CHANNELS 3 Zrotation Yrotation Xrotation
										End Site
										{
											OFFSET 0.50419 -0.00000 -0.00000
										}
									}
								}
								JOINT LThumb
								{
									OFFSET 0 0 0
									CHANNELS 3 Zrotation Yrotation Xrotation
									End Site
									{
										OFFSET 0.51189 -0.00000 0.51189
									}
								}
							}
						}
					}
				}
				JOINT RightShoulder
				{
					OFFSET 0 0 0
					CHANNELS 3 Zrotation Yrotation Xrotation
					JOINT RightArm
					{
						OFFSET -3.78081 1.02180 -0.16609
						CHANNELS 3 Zrotation Yrotation Xrotation
						JOINT RightForeArm
						{
							OFFSET -4.40640 -0.00000 -0.00000
							CHANNELS 3 Zrotation Yrotation Xrotation
							JOINT RightHand
							{
								OFFSET -3.44675 -0.00000 0.00000
								CHANNELS 3 Zrotation Yrotation Xrotation
								JOINT RightFingerBase
								{
									OFFSET 0 0 0
									CHANNELS 3 Zrotation Yrotation Xrotation
									JOINT RightHandIndex1
									{
										OFFSET -0.51367 -0.00000 -0.00000
										CHANNELS 3 Zrotation Yrotation Xrotation
										End Site
										{
											OFFSET -0.41414 -0.00000 -0.00000
										}
									}
								}
								JOINT RThumb
								{
									OFFSET 0 0 0
									CHANNELS 3 Zrotation Yrotation Xrotation
									End Site
									{
										OFFSET -0.42046 -0.00000 0.42046
									}
								}
							}
						}
					}
				}
			}
		}
	}
}
MOTION
Frames: 10
Frame Time: 0.2
0.00 0.00 0.00 0 0 0 0 0 0 -21 0 0 0 0 0 0 0 0 0 0 0 0 0 0 21 0 0 0 0 0 0 0 0 0 0 0 0 0 0 0 0 0 0 0 0 0 0 -16 0 0 21 0 0 11 0 0 0 -8 0 0 0 0 0 0 0 0 0 0 0 0 0 0 0 0 0 0 0 0 8 0 0 0 0 0 0 0 0 0 0 0 0 0 0 0 0 0
0.00 0.00 0.00 160.5100 -51.9746 -162.7870 0.0000 0.0000 0.0000 -18.2711 -15.5640 -53.2445 31.6998 16.3357 126.3630 4.1625 -6.1845 -37.4894 13.4525 -18.9395 -70.5252 0.0000 0.0000 0.0000 -30.9246 0.5092 -72.1963 -24.6134 -19.4819 103.6014 -0.4991 26.7342 -21.8384 -6.1128 14.5368 -45.4327 2.5476 4.0648 28.1584 8.5263 6.1863 4.3823 6.0702 2.5955 -11.3938 -3.0763 5.4838 -6.1663 -8.6670 4.4703 -22.6792 -2.3040 2.2309 -5.7493 -0.0000 0.0000 0.0000 -11.6421 -14.9938 -32.7329 136.8013 -49.8549 -99.1475 -0.0000 -0.0000 18.5801 55.7922 -19.6393 -26.3082 -7.1250 0.0000 -0.0000 16.5175 -1.2711 -17.6224 -0.0000 0.0000 0.0000 53.2567 29.1736 -13.6764 -30.1648 41.0343 -11.5177 0.0000 -0.0000 -44.6022 1.2830 -18.5642 -0.4085 7.1250 -0.0000 -0.0000 27.5498 -46.5097 -1.1097
0.00 0.00 0.00 159.6490 -49.5118 -159.1940 0.0000 0.0000 0.0000 -21.3858 -14.5905 -45.8021 26.5507 18.9384 109.4848 3.4287 -4.2126 -34.1449 13.4556 -18.9405 -70.5347 0.0000 0.0000 0.0000 -27.1875 5.7433 -64.8680 -20.2692 -19.9983 90.7872 -1.1431 21.8215 -22.9746 -5.5880 14.0168 -43.3048 2.3339 4.3640 25.1099 8.9336 6.6500 3.0660 6.5760 2.9306 -11.4485 -1.8069 5.8858 -5.6160 -9.2957 4.8879 -22.7405 -2.7367 2.3761 -5.7722 -0.0000 -0.0000 0.0000 -8.1443 -16.5339 -33.9490 132.9627 -51.7284 -96.1723 -0.0000 -0.0000 18.9122 56.2930 -19.9529 -27.0918 -7.1250 0.0000 -0.0000 16.7051 -2.0004 -18.0525 -0.0000 -0.0000 0.0000 52.6511 30.2988 -14.5258 -29.0279 40.0455 -10.7787 0.0000 -0.0000 -45.4015 1.7124 -20.3537 -0.5958 7.1250 -0.0000 -0.0000 28.8256 -48.0320 -2.3398
0.00 0.00 0.00 159.4720 -47.1605 -156.8620 0.0000 0.0000 0.0000 -24.3899 -12.4183 -37.8620 20.6036 19.9913 91.7650 2.5460 -1.2374 -29.8841 13.4018 -18.9225 -70.3691 0.0000 0.0000 0.0000 -23.1677 8.6401 -57.0815 -15.6841 -19.5474 77.2890 -1.2685 17.3595 -22.0083 -5.2357 13.6445 -41.8315 2.1485 4.5772 21.8671 9.4249 6.9188 1.9097 7.2685 3.1530 -11.1398 -2.1038 5.6945 -7.2068 -9.0515 4.8768 -20.9496 -2.5259 2.3054 -4.9649 -0.0000 0.0000 0.0000 -4.7077 -18.5592 -35.3727 126.5771 -54.2861 -91.0689 -0.0000 -0.0000 18.3097 56.1305 -20.1183 -27.1331 -7.1250 0.0000 -0.0000 16.5697 -2.1383 -17.9323 -0.0000 0.0000 0.0000 51.7149 32.0926 -15.4258 -26.4728 37.6717 -9.1751 0.0000 -0.0000 -45.1608 1.4983 -17.8416 -0.4592 7.1250 -0.0000 -0.0000 27.3935 -45.8403 -0.6146
0.00 0.00 0.00 159.0980 -45.3479 -154.9390 0.0000 0.0000 0.0000 -26.3615 -9.9677 -28.6623 14.0885 19.1407 72.4746 1.5159 2.0633 -24.0855 13.3475 -18.9041 -70.2015 0.0000 0.0000 0.0000 -19.1496 10.3647 -48.8496 -11.4479 -18.1474 64.2277 -1.2459 12.6263 -20.5518 -4.7008 13.0387 -39.5136 1.3992 4.6438 19.0216 9.8858 6.8562 0.8138 8.3719 3.2392 -10.9557 -1.4288 5.6872 -8.3389 -9.3262 4.9935 -19.4254 -2.6619 2.2722 -4.2671 0.0000 0.0000 0.0000 0.9264 -19.7766 -37.4407 116.7633 -57.1125 -82.9530 -0.0000 -0.0000 16.9387 56.0154 -20.3088 -27.2424 -7.1250 0.0000 -0.0000 16.4534 -2.3382 -17.8515 0.0000 0.0000 0.0000 50.8066 34.0554 -16.7382 -23.4827 34.6124 -7.4107 0.0000 -0.0000 -43.0871 1.3412 -19.4729 -0.4472 7.1250 -0.0000 -0.0000 28.0474 -47.3071 -1.7278
0.00 0.00 0.00 158.5210 -44.0510 -152.1090 0.0000 0.0000 0.0000 -27.1202 -7.4456 -21.2868 8.3291 16.3560 53.7396 0.3547 5.9418 -14.9946 13.2565 -18.8728 -69.9203 0.0000 0.0000 0.0000 -16.0188 11.5911 -42.7543 -8.1124 -16.2013 52.9664 -0.9159 6.9184 -17.0850 -3.4188 11.3439 -33.4488 1.1576 4.5120 15.4761 9.9097 6.5566 -0.2933 8.7573 3.1617 -10.1714 -1.6288 5.3788 -10.2444 -8.2004 4.9489 -17.4646 -2.4356 2.1200 -3.8221 0.0000 0.0000 0.0000 4.2226 -21.4473 -37.3094 107.4373 -58.8193 -75.0413 -0.0000 -0.0000 17.2353 55.9727 -20.5266 -27.4436 -7.1250 0.0000 -0.0000 16.3689 -2.6172 -17.8297 0.0000 0.0000 0.0000 50.5415 35.9287 -19.1497 -20.0294 30.6777 -5.5463 0.0000 -0.0000 -40.3547 1.1087 -19.1978 -0.3646 7.1250 -0.0000 -0.0000 27.7072 -47.0947 -1.5475
0.00 0.00 0.00 158.4940 -43.0163 -150.0550 0.0000 0.0000 0.0000 -26.9402 -4.3921 -14.0500 3.8515 11.9601 35.5909 -0.4467 11.8212 -2.9393 13.1689 -18.8423 -69.6492 0.0000 0.0000 0.0000 -13.2191 12.7722 -37.3130 -5.5135 -13.9397 42.9964 -0.3955 0.5135 -11.7103 -3.9441 12.0856 -36.0354 0.9463 4.2439 12.1381 9.9884 6.0337 -1.1771 9.2257 2.9437 -9.1805 -1.8735 5.0110 -10.7965 -7.0002 4.7722 -16.2647 -1.9332 2.0178 -3.3306 -0.0000 -0.0000 0.0000 5.1200 -22.7076 -36.1665 100.0274 -59.6166 -68.6728 -0.0000 -0.0000 17.5496 56.1662 -19.8614 -26.8786 -7.1250 0.0000 -0.0000 16.6611 -1.7978 -17.9423 -0.0000 -0.0000 0.0000 51.9241 37.5528 -21.0446 -17.2778 27.2226 -4.2136 0.0000 -0.0000 -37.3284 0.9820 -17.3146 -0.2923 7.1250 -0.0000 -0.0000 26.7072 -45.4342 -0.3086
0.00 0.00 0.00 158.5210 -42.1560 -148.2780 0.0000 0.0000 0.0000 -26.5844 -4.2750 -6.6765 1.1473 6.8013 19.1281 -0.5591 20.2146 9.0835 12.8780 -18.7377 -68.7461 0.0000 0.0000 0.0000 -11.8218 14.5956 -34.3930 -4.0816 -12.2681 36.6873 0.0779 -5.7857 -5.3111 -3.8414 11.9463 -35.5424 0.4789 3.9771 9.4164 9.8721 5.5195 -2.0453 9.5762 2.7342 -8.5066 -2.0005 4.6179 -11.4522 -6.6103 4.4682 -14.9153 -1.7320 1.8611 -2.7647 -0.0000 0.0000 0.0000 6.8634 -23.8828 -36.6352 92.5310 -59.9758 -62.1917 -0.0000 -0.0000 15.7125 55.4238 -20.1588 -26.5652 -7.1250 0.0000 -0.0000 16.1703 -1.7908 -17.3658 -0.0000 0.0000 0.0000 53.3514 38.8124 -23.3503 -15.1241 24.3187 -3.2769 0.0000 -0.0000 -34.4567 0.2415 -16.3281 -0.0679 7.1250 -0.0000 -0.0000 25.6384 -44.6369 0.2467
0.00 0.00 0.00 157.5110 -44.2663 -144.9940 0.0000 0.0000 0.0000 -22.4384 -5.4206 1.8074 0.0000 0.0000 0.0000 0.7796 31.1044 25.9702 12.8186 -18.7157 -68.5610 0.0000 0.0000 0.0000 -7.9193 17.1454 -28.8988 -2.7423 -10.2657 29.8415 0.6119 -14.3414 -0.7661 -1.3731 7.4157 -20.9529 -0.7497 2.4132 3.6435 9.2970 3.1414 -4.0621 10.1667 1.6384 -6.9582 -3.5878 2.5862 -10.3881 -4.1564 2.3848 -13.0989 -0.6833 0.9595 -2.4225 -0.0000 -0.0000 0.0000 14.9417 -28.5731 -39.9079 70.8317 -58.5651 -43.4797 -0.0000 -0.0000 17.3040 54.4100 -19.4121 -24.9104 -7.1250 0.0000 -0.0000 15.8143 -0.1979 -16.5097 -0.0000 -0.0000 0.0000 53.5823 39.7203 -36.3736 -9.8413 16.4910 -1.4296 0.0000 -0.0000 -21.5765 2.1234 -18.7347 -0.6823 7.1250 -0.0000 -0.0000 28.3605 -46.5516 -1.1797
0.00 0.00 0.00 158.7150 -41.7612 -148.9860 0.0000 0.0000 0.0000 -17.4621 -6.8812 3.2358 0.1372 2.3872 6.5771 -0.7373 37.9554 23.8721 11.1245 -17.9955 -63.1852 0.0000 0.0000 0.0000 1.5558 10.3294 -22.6957 -2.2805 -9.4273 27.1415 -0.6154 4.4138 -13.9794 -1.8162 8.4723 -24.1582 -4.2846 -0.0036 -0.2094 8.7265 -0.2894 -3.1176 11.8225 -0.0709 -3.1066 -2.7543 -2.9107 -12.8462 -6.9035 -3.3287 2.3985 -2.0181 -2.0977 2.9745 -0.0000 0.0000 0.0000 26.4226 -36.9938 -41.7718 43.2970 -49.9064 -20.9277 -0.0000 -0.0000 16.9521 49.9587 -19.7044 -21.8623 -7.1250 0.0000 -0.0000 13.2167 1.5397 -13.2162 -0.0000 0.0000 0.0000 72.4402 34.8434 -25.9612 -10.2549 17.1374 -1.5492 0.0000 -0.0000 -17.1726 0.6410 -20.3617 -0.2230 7.1250 -0.0000 -0.0000 27.8862 -48.1893 -2.3669
